<?xml version="1.0" encoding="utf-8"?>
<!-- Generator: Adobe Illustrator 26.4.1, SVG Export Plug-In . SVG Version: 6.00 Build 0)  -->
<svg version="1.1" id="Layer_1" xmlns="http://www.w3.org/2000/svg" xmlns:xlink="http://www.w3.org/1999/xlink" x="0px" y="0px"
	 viewBox="0 0 792 612" style="enable-background:new 0 0 792 612;" xml:space="preserve">
<style type="text/css">
	.st0{fill:#FA4616;}
	.st1{fill:#0021A5;}
</style>
<g>
	<rect x="355.6" y="288.2" class="st0" width="1.4" height="31.7"/>
	<g>
		<polygon class="st1" points="328.5,288.2 328.5,293.5 330.6,293.5 330.6,314.5 328.5,314.5 328.5,319.9 338.7,319.9 338.7,314.5 
			336.7,314.5 336.7,306.4 344.3,306.4 344.3,301.1 336.7,301.1 336.7,293.5 345.1,293.5 345.1,296.5 350.6,296.5 350.6,288.2 		"/>
		<g>
			<path class="st1" d="M325.6,307.9v-14.4h2v-5.3h-10.2v5.3h2v12.6c0,5.3-0.6,7.8-4.5,7.8c-3.9,0-4.5-2.5-4.5-7.8v-12.6h2v-5.3
				h-10.2v5.3h2v14.4c0,3.1,0,5.7,1.5,8c1.7,2.6,4.8,4.3,9.2,4.3C322.8,320.2,325.6,316.2,325.6,307.9"/>
		</g>
	</g>
	<g>
		<path class="st1" d="M471.5,291.6c0.3,0,0.6,0,0.9,0l-1,5.1c-0.3,1.4-0.5,2.3-0.6,2.8c-0.1,0.2-0.2,0.4-0.3,0.5
			c-0.1,0.1-0.2,0.1-0.4,0.1c-0.1,0-0.3,0-0.4-0.1c-0.1-0.1-0.2-0.3-0.3-0.5l-0.2,0c-0.1,0.2-0.1,0.5-0.2,0.7
			c-0.1,0.2-0.2,0.5-0.3,0.8c0.2,0.1,0.4,0.1,0.5,0.1c0.2,0,0.4-0.1,0.7-0.2c0.5-0.2,0.9-0.6,1.3-1.1c0.4-0.5,0.8-1.1,1.1-1.7
			c0.3-0.7,0.6-1.7,1-3.2l0.8-3.3c0.2,0,0.4,0,0.7,0c0.5,0,0.9,0,1.1,0c0-0.2,0.1-0.5,0.2-0.7l-0.1-0.1c-0.2,0-0.4,0.1-0.7,0.1
			c-0.5,0-0.8,0-0.9,0h-0.2c0.1-0.6,0.2-1.2,0.4-1.8c0.1-0.2,0.1-0.4,0.2-0.5c0.1-0.1,0.1-0.2,0.3-0.3c0.1-0.1,0.2-0.1,0.3-0.1
			c0.1,0,0.3,0.1,0.5,0.2c0.2,0.1,0.4,0.3,0.6,0.6l0.2,0c0.1-0.5,0.2-1.1,0.4-1.7c-0.2-0.1-0.4-0.1-0.6-0.1c-0.3,0-0.5,0-0.7,0.1
			c-0.2,0.1-0.5,0.3-1,0.6c-0.5,0.3-0.9,0.7-1.4,1.1c-0.3,0.2-0.5,0.5-0.6,0.7c-0.1,0.1-0.2,0.4-0.3,0.8c0,0.2-0.1,0.3-0.1,0.4
			c-0.2,0.1-0.4,0.2-0.8,0.3c-0.3,0.1-0.5,0.2-0.7,0.2l-0.1,0.3C471.2,291.6,471.3,291.6,471.5,291.6 M465.1,293.2
			c0.2-0.8,0.4-1.3,0.7-1.6c0.3-0.3,0.6-0.4,1-0.4c0.4,0,0.7,0.1,0.9,0.4c0.2,0.2,0.3,0.7,0.3,1.2c0,0.7-0.1,1.3-0.3,2.1
			c-0.1,0.5-0.3,0.9-0.4,1.2c-0.2,0.3-0.3,0.5-0.5,0.6c-0.2,0.1-0.4,0.2-0.7,0.2c-0.4,0-0.7-0.1-0.9-0.4c-0.2-0.2-0.3-0.6-0.3-1.2
			C464.8,294.6,464.9,293.9,465.1,293.2 M463.3,296.4c0.1,0.3,0.4,0.6,0.7,0.8c0.3,0.2,0.8,0.3,1.3,0.3c0.5,0,0.9-0.1,1.3-0.2
			c0.4-0.1,0.8-0.3,1.2-0.6c0.4-0.3,0.7-0.5,0.9-0.7c0.3-0.3,0.5-0.8,0.7-1.4c0.2-0.6,0.3-1.2,0.3-1.8c0-0.3,0-0.6-0.1-0.9
			c-0.1-0.3-0.2-0.5-0.4-0.7c-0.2-0.2-0.4-0.3-0.7-0.5c-0.3-0.1-0.7-0.2-1.1-0.2c-0.5,0-0.9,0.1-1.4,0.3c-0.4,0.2-0.8,0.4-1.2,0.7
			c-0.4,0.3-0.6,0.5-0.7,0.7c-0.2,0.3-0.4,0.7-0.6,1.3c-0.2,0.6-0.3,1.2-0.3,1.8C463.1,295.7,463.2,296.1,463.3,296.4"/>
		<path class="st1" d="M475.6,305l3.1,7.3c-0.9,0-1.9,0-3,0c-1.1,0-2.2,0-3.1,0L475.6,305z M469.6,319.9l3.3,0.1v-1.2
			c-1.1,0-1.8-0.1-2.1-0.3c-0.2-0.1-0.2-0.3-0.2-0.5c0-0.3,0.2-1.1,0.7-2.4l0.6-1.7h7.4l1.2,3.1c0.2,0.5,0.3,0.9,0.3,1.2
			c0,0.2-0.1,0.3-0.2,0.4c-0.2,0.1-0.8,0.1-2,0.2v1.2l5.1-0.1l4,0.1v-1.2c-0.3,0-0.5-0.1-0.6-0.1c-0.5,0-0.7-0.1-0.8-0.1
			c-0.1,0-0.2-0.1-0.3-0.2c-0.1-0.1-0.2-0.2-0.3-0.4l-0.6-1.3l-0.9-1.9l-6.4-14.8h-2.1l-1.3,3.2l-3.8,9.1c-0.7,1.7-1.2,2.9-1.4,3.5
			c-0.5,1.2-0.9,2-1,2.2c-0.1,0.2-0.2,0.3-0.3,0.4c-0.1,0.1-0.2,0.2-0.4,0.2c-0.1,0-0.6,0.1-1.4,0.1v1.2L469.6,319.9z M453.2,312.7
			v-3.2c0-3.7,0-6.2,0.1-7.6c0.9-0.1,1.7-0.2,2.5-0.2c2,0,3.4,0.2,4.4,0.5c1,0.3,1.8,0.9,2.4,1.6s1.1,1.6,1.4,2.6s0.4,2,0.4,3.1
			c0,1.2-0.1,2.3-0.4,3.3c-0.3,1-0.7,1.9-1.2,2.6c-0.5,0.7-1,1.3-1.6,1.7c-0.5,0.4-1.2,0.7-1.9,0.9c-1,0.3-2.1,0.4-3.4,0.4
			c-0.8,0-1.7-0.1-2.6-0.2C453.3,317.4,453.2,315.5,453.2,312.7 M452,319.9l4.3,0.1c1.9,0,3.6-0.2,5-0.6c1.4-0.4,2.6-1.1,3.8-2.1
			c1.2-1,2.1-2.1,2.8-3.6c0.7-1.4,1-3,1-4.8c0-1.4-0.2-2.7-0.7-3.9c-0.3-0.7-0.7-1.4-1.2-2c-0.5-0.6-1.2-1.1-1.9-1.6
			c-0.8-0.4-1.6-0.8-2.7-1c-1-0.2-2.4-0.3-4.1-0.3c-0.7,0-1.7,0-3,0c-1.7,0.1-2.9,0.1-3.5,0.1l-5.2-0.1v1.1c1,0.1,1.6,0.2,1.8,0.3
			c0.2,0,0.3,0.1,0.4,0.2c0,0,0.1,0.1,0.1,0.2c0.1,0.4,0.2,1.2,0.2,2.5c0.1,2.4,0.1,4.2,0.1,5.5v2.3c0,2.8-0.1,4.9-0.2,6.2
			c-0.3,0.2-0.6,0.4-1,0.6c-0.2,0.1-0.3,0.2-0.4,0.2v0.7L452,319.9z M440.8,300.3c-1.6,0-3,0-4.2-0.1v1.2c1.1,0,1.7,0.1,1.8,0.1
			c0.2,0,0.3,0.1,0.3,0.2c0.1,0.1,0.1,0.2,0.1,0.3c0.1,0.3,0.1,1.1,0.2,2.3c0,0.5,0,1.7,0,3.6v5.9c0,1,0,2-0.1,3.1
			c0,0.8-0.1,1.2-0.1,1.3c0,0.1-0.1,0.2-0.1,0.2c-0.1,0.1-0.2,0.1-0.4,0.2c-0.2,0-0.7,0.1-1.7,0.1v1.2c1.2-0.1,2.6-0.1,4.1-0.1
			c1.8,0,3.5,0,5,0.1v-1.2c-0.9,0-1.5,0-1.7-0.1c-0.2,0-0.3-0.1-0.4-0.2c-0.1-0.1-0.2-0.2-0.2-0.3c-0.1-0.3-0.1-0.9-0.1-1.9l0-2.6
			V308c0-0.2,0-1.4,0.1-3.8c0-0.7,0-1.1,0-1.4c0-0.5,0.1-0.8,0.1-0.9c0-0.1,0.1-0.2,0.2-0.2c0.1-0.1,0.2-0.1,0.4-0.2
			c0.2,0,0.8-0.1,1.7-0.1v-1.2C444.2,300.3,442.6,300.3,440.8,300.3 M417.8,301.7c0.1,0.1,0.2,0.1,0.2,0.2c0.1,0.2,0.2,0.9,0.2,2.1
			l0.1,3v5.3l-0.1,4.1c0,0.7-0.1,1.3-0.1,1.7c0,0.2-0.1,0.3-0.1,0.4c-0.1,0.1-0.1,0.1-0.2,0.1c-0.2,0.1-0.8,0.1-1.9,0.2v1.2
			c1.3-0.1,2.7-0.1,4.2-0.1c1.7,0,3.3,0,5,0.1v-1.2c-0.9,0-1.5,0-1.7-0.1c-0.2,0-0.3-0.1-0.4-0.1c-0.1-0.1-0.1-0.1-0.2-0.2
			c-0.1-0.2-0.1-0.5-0.2-1c0-0.3,0-1.4-0.1-3.3c0-1.6,0-3.1,0-4.5c0-0.9,0-2.7,0.1-5.3c0-1.2,0.1-2,0.1-2.3c0.5-0.1,0.9-0.1,1.4-0.1
			c1,0,1.8,0.1,2.2,0.2c0.6,0.2,1.2,0.6,1.6,1.2c0.4,0.6,0.6,1.3,0.6,2.2c0,0.9-0.2,1.6-0.6,2.3c-0.4,0.7-0.9,1.2-1.5,1.4
			c-0.6,0.3-1.5,0.4-2.6,0.3l-0.2,0.5c0.3,0.2,0.6,0.5,0.9,0.9c0.6,0.8,1.4,1.9,2.2,3.4l3.1,5c0.2,0.3,0.3,0.6,0.3,0.8
			c0.8,0,1.5-0.1,2.3-0.1c0.7,0,1.7,0,3.2,0.1v-1.2c-0.5,0-0.8,0-0.9-0.1c-0.2-0.1-0.3-0.2-0.5-0.4c-0.2-0.2-0.6-0.7-1.3-1.7
			c0-0.1-0.4-0.5-1-1.4l-2.2-3.3c-0.1-0.1-0.1-0.2-0.2-0.3c-0.1-0.1-0.2-0.4-0.5-0.8c-0.3-0.4-0.6-0.9-0.8-1.3
			c1.5-0.5,2.6-1.3,3.3-2.2c0.7-0.9,1.1-2,1.1-3.1c0-1-0.3-1.8-0.8-2.4c-0.5-0.7-1.2-1.1-1.9-1.3c-0.8-0.2-1.9-0.3-3.4-0.3
			c-0.8,0-1.8,0-3,0.1c-0.7,0-1.6,0.1-2.6,0.1c-1.2,0-2.1,0-2.7,0c-1.3,0-2.1-0.1-2.3-0.1v1.2C416.9,301.5,417.6,301.6,417.8,301.7
			 M398.9,305.3c0.4-1.3,1.2-2.2,2.1-2.9c1-0.6,2.2-1,3.6-1c1.2,0,2.2,0.2,3,0.6c0.7,0.4,1.4,1,1.9,1.8c0.5,0.8,1,1.7,1.3,2.8
			c0.3,1.1,0.4,2.3,0.4,3.6c0,1.9-0.3,3.6-0.8,4.9c-0.5,1.4-1.3,2.3-2.3,2.9c-1,0.6-2,0.9-3.3,0.9c-1.3,0-2.4-0.3-3.4-0.9
			c-1-0.6-1.7-1.6-2.4-3.1c-0.6-1.4-0.9-3.3-0.9-5.5C398.3,308,398.5,306.6,398.9,305.3 M395.2,315.9c0.9,1.5,2.1,2.6,3.7,3.4
			c1.6,0.8,3.4,1.2,5.6,1.2c2,0,3.8-0.3,5.3-0.9c1.1-0.5,2.1-1.1,3-2c0.9-0.9,1.6-1.9,2-3c0.6-1.5,0.9-3.2,0.9-4.9
			c0-1-0.1-2-0.3-2.9c-0.2-0.9-0.5-1.7-1-2.4c-0.4-0.7-1-1.4-1.9-2.1c-0.8-0.7-1.7-1.2-2.8-1.6c-1.4-0.5-3-0.7-4.8-0.7
			c-1.8,0-3.4,0.3-4.9,0.8c-1.2,0.4-2.2,1-3.2,1.9c-1,0.9-1.8,2-2.3,3.3c-0.5,1.3-0.8,2.8-0.8,4.5
			C393.8,312.6,394.3,314.4,395.2,315.9 M382.7,319.9c0.6,0,1.7,0,3.3,0.1c2.1,0,3.2,0.1,3.4,0.1c1.2,0,2.1,0,2.7-0.1
			c0.3,0,0.6-0.1,0.8-0.2c0-0.2,0.1-0.7,0.1-1.6l0.4-2.9c0,0,0-0.2,0-0.5h-1.2c-0.2,0.9-0.4,1.8-0.6,2.5c-0.1,0.3-0.2,0.5-0.2,0.5
			c-0.1,0.1-0.3,0.1-0.7,0.2c-1.1,0.2-2.4,0.2-3.8,0.2c-0.5,0-1.4,0-2.7-0.1c0-0.3,0-1.1,0-2.4c0-1.3,0-2.7,0-4c0-2.6,0-3.9,0-4.1
			c0-1.6,0-2.9,0.1-3.9c0-1,0.1-1.6,0.1-1.7c0-0.1,0.1-0.2,0.2-0.3c0.2-0.1,0.9-0.2,2-0.3v-1.2c-1.6,0.1-3.2,0.1-5,0.1
			c-1.6,0-3,0-4.2-0.1v1.2c1.3,0,2,0.1,2.2,0.3c0.1,0.1,0.2,0.1,0.2,0.3c0.1,0.3,0.1,1.3,0.2,3c0,0.7,0,2.5,0,5.5c0,2,0,3.8-0.1,5.2
			c0,1.4-0.1,2.3-0.1,2.5c0,0.1,0,0.1-0.1,0.2c-0.1,0.1-0.2,0.2-0.4,0.3c-0.5,0.3-0.8,0.4-1,0.6v0.7
			C380.3,319.9,381.8,319.9,382.7,319.9 M374.7,307h-1.3c0,0.8-0.1,1.4-0.2,1.6c-0.1,0.2-0.1,0.3-0.3,0.3c-0.3,0.1-1.1,0.2-2.4,0.2
			c-0.4,0-1.3,0-2.5-0.1v-2c0-2.4,0.1-4.1,0.2-5.1c0.3,0,0.8,0,1.5-0.1c0.7,0,1.2,0,1.4,0c0.8,0,1.6,0.1,2.2,0.2
			c0.6,0.1,1,0.2,1.2,0.3c0.1,0,0.1,0.1,0.1,0.1c0,0.1,0.1,0.3,0.1,0.7c0,0.8,0.1,1.3,0.1,1.5h1.2c0-0.6,0.1-1.3,0.1-2.2
			c0.1-0.8,0.2-1.5,0.3-2.1l-0.1-0.2c-0.9-0.1-1.8-0.1-2.8-0.1l-6.9,0.1l-5.1-0.1v1.2c0.9,0.1,1.5,0.1,1.7,0.2
			c0.2,0,0.3,0.1,0.4,0.1c0.1,0.1,0.1,0.1,0.1,0.2c0.1,0.3,0.1,0.8,0.2,1.5c0.1,2.5,0.1,3.8,0.1,4v5.9c0,0.5,0,1.3-0.1,2.5
			c-0.1,1.1-0.1,1.8-0.1,2c0,0.4-0.1,0.6-0.2,0.7c-0.1,0.1-0.1,0.1-0.2,0.2c-0.2,0.1-0.8,0.1-1.9,0.1v1.2c1.8-0.1,3.1-0.1,3.9-0.1
			l5.7,0.1v-1.1c-1.3-0.1-2.1-0.2-2.3-0.2c-0.2-0.1-0.3-0.1-0.4-0.2c-0.1-0.2-0.2-0.7-0.2-1.6c-0.1-0.9-0.1-2.5-0.1-4.7v-1.6
			c0.5,0,0.9,0,1.1,0c1.5,0,2.7,0.1,3.4,0.2c0.3,0.1,0.5,0.1,0.5,0.3c0.1,0.2,0.2,1,0.2,2.1h1.3V307z"/>
		<path class="st1" d="M452.7,290.5c-0.3-0.6-0.6-1-0.9-1.5c-0.2-0.3-0.4-0.5-0.5-0.6c-0.1-0.1-0.3-0.2-0.5-0.4
			c-0.2,0.1-0.5,0.1-0.7,0.2l-1.3,0.2v0.4c0.3,0,0.5,0,0.5,0c0.1,0,0.2,0.2,0.4,0.4c0.3,0.3,0.6,0.8,1,1.3c0.4,0.7,0.8,1.3,1.2,2
			c0.2,0.3,0.2,0.5,0.2,0.6v1.1c0,0.3,0,0.7,0,1.2c0,0.2,0,0.3-0.1,0.4c0,0-0.1,0.1-0.2,0.1c-0.1,0-0.3,0-0.8,0.1v0.5
			c0.6,0,1.2,0,1.8,0c0.6,0,1.3,0,2.1,0V296c-0.5,0-0.7,0-0.8,0c-0.1,0-0.1-0.1-0.2-0.1c0,0-0.1-0.2-0.1-0.4c0-0.2,0-0.6,0-1.1v-1
			c0-0.2,0-0.4,0-0.4c0-0.1,0.1-0.3,0.2-0.4c0.1-0.2,0.5-0.8,1-1.7c0.6-0.9,1.1-1.6,1.6-2.3v-0.3h-1c-0.1,0.1-0.2,0.4-0.4,0.7
			c-0.6,1.1-1,1.8-1.1,2l-0.8,1.2C453.4,291.9,453.1,291.4,452.7,290.5 M442.7,296.5c0.5,0,1.2,0,2,0.1V296c-0.5,0-0.8,0-0.9-0.1
			c-0.1,0-0.2-0.1-0.2-0.2c0-0.2-0.1-0.7-0.1-1.5v-3.6c0-0.9,0-1.5,0-1.6h0.9c0.5,0,0.9,0,1.2,0c0.1,0,0.2,0,0.2,0
			c0,0,0.1,0.1,0.1,0.3c0,0.3,0.1,0.6,0.1,0.9h0.5c0-0.8,0-1.3,0-1.3c0-0.2,0-0.4,0.1-0.6l-0.1-0.1c-0.2,0-0.4,0-0.6,0
			c-0.3,0-1,0-2,0h-2.4c-1,0-1.7,0-2,0c-0.2,0-0.4,0-0.6,0l-0.1,0.1c0,0.2,0,0.4,0.1,0.6c0,0.1,0,0.6,0,1.4h0.5c0-0.3,0-0.7,0.1-0.9
			c0-0.1,0-0.2,0.1-0.2c0,0,0.1,0,0.2,0c0.3,0,0.7,0,1.2,0h0.9c0,0.1,0,0.7,0,1.6v3.6c0,0.9,0,1.4-0.1,1.5c0,0.1-0.1,0.2-0.2,0.2
			c-0.1,0-0.4,0.1-0.9,0.1v0.5C441.5,296.5,442.2,296.5,442.7,296.5 M434.4,288.2c-0.7,0-1.2,0-1.7,0v0.5c0.4,0,0.7,0,0.8,0.1
			c0.1,0,0.1,0,0.1,0.1c0,0,0,0.1,0.1,0.1c0,0.1,0.1,0.4,0.1,0.9c0,0.2,0,0.7,0,1.5v2.5c0,0.4,0,0.8-0.1,1.3c0,0.3,0,0.5,0,0.6
			c0,0,0,0.1-0.1,0.1c0,0-0.1,0.1-0.2,0.1c-0.1,0-0.3,0-0.7,0v0.5c0.5,0,1.1,0,1.7,0c0.7,0,1.4,0,2.1,0V296c-0.4,0-0.6,0-0.7,0
			c-0.1,0-0.1,0-0.2-0.1c0,0-0.1-0.1-0.1-0.1c0-0.1-0.1-0.4-0.1-0.8l0-1.1v-2.4c0-0.1,0-0.6,0-1.6c0-0.3,0-0.5,0-0.6
			c0-0.2,0-0.3,0.1-0.4c0,0,0-0.1,0.1-0.1c0,0,0.1,0,0.2-0.1c0.1,0,0.3,0,0.7,0v-0.5C435.8,288.2,435.1,288.2,434.4,288.2
			 M429,289.4c0-0.2,0.1-0.5,0.1-0.8l0-0.1c-0.3-0.1-0.6-0.3-1-0.3c-0.4-0.1-0.8-0.1-1.2-0.1c-0.4,0-0.8,0-1.2,0.1
			c-0.4,0.1-0.7,0.2-1.1,0.4c-0.3,0.2-0.6,0.5-0.8,0.9c-0.2,0.4-0.3,0.8-0.3,1.2c0,0.3,0.1,0.6,0.2,0.9c0.1,0.3,0.3,0.5,0.5,0.7
			s0.5,0.3,0.8,0.4c0.2,0.1,0.7,0.2,1.4,0.3c0.5,0.1,0.9,0.2,1.1,0.3c0.2,0.1,0.3,0.2,0.4,0.4c0.1,0.2,0.1,0.4,0.1,0.6
			c0,0.3-0.1,0.6-0.2,0.8c-0.1,0.2-0.4,0.4-0.7,0.5c-0.3,0.1-0.6,0.2-1,0.2c-0.4,0-0.8-0.1-1.2-0.3c-0.4-0.2-0.6-0.4-0.8-0.6
			c-0.1-0.4-0.1-0.8-0.1-1.1h-0.5c0,0.9-0.1,1.6-0.2,2.1c0.5,0.2,0.9,0.4,1.3,0.5c0.4,0.1,0.8,0.1,1.3,0.1c0.7,0,1.3-0.1,1.7-0.3
			c0.3-0.1,0.6-0.3,0.9-0.5c0.3-0.2,0.5-0.5,0.7-0.8c0.2-0.4,0.3-0.8,0.3-1.3c0-0.3,0-0.5-0.1-0.8c-0.1-0.2-0.2-0.4-0.3-0.6
			c-0.1-0.2-0.3-0.3-0.5-0.4c-0.2-0.1-0.5-0.2-0.8-0.3c-0.1,0-0.4-0.1-0.8-0.1c-0.4-0.1-0.7-0.1-1-0.2c-0.3-0.1-0.5-0.2-0.7-0.3
			c-0.2-0.1-0.3-0.2-0.4-0.4c-0.1-0.2-0.1-0.4-0.1-0.6c0-0.4,0.2-0.7,0.5-1c0.3-0.3,0.7-0.4,1.3-0.4c0.4,0,0.7,0.1,1,0.2
			c0.3,0.1,0.5,0.3,0.7,0.5c0,0.2,0.1,0.5,0.1,1h0.5C428.9,290,429,289.6,429,289.4 M413.4,288.8c0,0,0.1,0.1,0.1,0.1
			c0,0.1,0.1,0.4,0.1,0.9l0,1.3v2.2l-0.1,1.7c0,0.3,0,0.5-0.1,0.7c0,0.1,0,0.1-0.1,0.2c0,0-0.1,0-0.1,0.1c-0.1,0-0.4,0-0.8,0.1v0.5
			c0.5,0,1.1,0,1.7,0c0.7,0,1.4,0,2.1,0V296c-0.4,0-0.6,0-0.7,0c-0.1,0-0.1,0-0.2-0.1c0,0-0.1-0.1-0.1-0.1c0-0.1-0.1-0.2-0.1-0.4
			c0-0.1,0-0.6,0-1.4c0-0.7,0-1.3,0-1.9c0-0.4,0-1.1,0-2.2c0-0.5,0-0.8,0-1c0.2,0,0.4,0,0.6,0c0.4,0,0.7,0,0.9,0.1
			c0.3,0.1,0.5,0.3,0.7,0.5c0.2,0.2,0.3,0.5,0.3,0.9c0,0.4-0.1,0.7-0.3,1c-0.2,0.3-0.4,0.5-0.6,0.6c-0.2,0.1-0.6,0.2-1.1,0.1
			l-0.1,0.2c0.1,0.1,0.2,0.2,0.4,0.4c0.3,0.3,0.6,0.8,0.9,1.4l1.3,2.1c0.1,0.1,0.1,0.3,0.1,0.3c0.3,0,0.6,0,1,0c0.3,0,0.7,0,1.3,0
			V296c-0.2,0-0.3,0-0.4,0c-0.1,0-0.1-0.1-0.2-0.1c-0.1-0.1-0.3-0.3-0.6-0.7c0,0-0.2-0.2-0.4-0.6l-0.9-1.4c0,0,0-0.1-0.1-0.1
			c0,0-0.1-0.2-0.2-0.3c-0.1-0.2-0.2-0.4-0.3-0.5c0.6-0.2,1.1-0.5,1.4-0.9c0.3-0.4,0.5-0.8,0.5-1.3c0-0.4-0.1-0.7-0.3-1
			c-0.2-0.3-0.5-0.5-0.8-0.6c-0.3-0.1-0.8-0.1-1.4-0.1c-0.3,0-0.7,0-1.2,0c-0.3,0-0.7,0-1.1,0c-0.5,0-0.9,0-1.1,0c-0.6,0-0.9,0-1,0
			v0.5C413,288.7,413.3,288.8,413.4,288.8 M405.4,296.5c0.4,0,1,0,2,0l1,0c0.5,0,0.8,0,1.1,0l0.1-0.1c0-0.5,0-1.2,0.1-1.9h-0.5
			c-0.1,0.5-0.2,0.9-0.2,1.1c0,0.1,0,0.1-0.1,0.1c-0.1,0.1-0.3,0.1-0.7,0.1c-0.4,0-0.8,0-1.2,0c-0.4,0-0.8,0-1.2,0
			c0-0.2,0-0.4,0-0.7v-2.5c0.3,0,0.6,0,1,0c0.4,0,0.8,0,1.1,0.1c0.1,0,0.2,0.1,0.3,0.1c0.1,0.1,0.1,0.4,0.1,0.8h0.5l0-1.3l0-1.3
			h-0.5c0,0.4,0,0.6-0.1,0.8c0,0.1-0.1,0.1-0.1,0.1c0,0-0.2,0-0.4,0c-0.6,0-0.9,0-1,0c-0.3,0-0.6,0-0.9,0v-1.2c0-0.7,0-1.3,0.1-1.7
			c0.4,0,0.7,0,1.1,0c0.4,0,0.8,0,1.2,0.1c0.3,0,0.4,0.1,0.5,0.1c0,0,0.1,0.1,0.1,0.1c0,0.1,0,0.4,0.1,0.9h0.5
			c0-0.5,0.1-0.8,0.1-0.9l0.1-0.9l0-0.1c-0.1,0-0.2,0-0.2,0c-0.4,0-0.7,0-0.9,0l-1.2,0c-0.7,0-1.3,0-1.8,0c-0.3,0-0.5,0-0.8,0
			l-1.4,0v0.5c0.5,0,0.8,0.1,0.9,0.1c0,0,0.1,0.1,0.1,0.1c0,0.1,0.1,0.4,0.1,0.8c0,0.7,0,1.1,0,1.2v2.7c0,0.3,0,0.8-0.1,1.5
			c0,0.4,0,0.6-0.1,0.8c-0.2,0.1-0.3,0.2-0.6,0.3v0.3C404.6,296.5,405.3,296.5,405.4,296.5 M396.7,296.6c0.2-0.7,0.7-1.8,1.4-3.5
			l0.8-1.9l0.4-1c0.3-0.8,0.6-1.3,0.7-1.3c0.1,0,0.3-0.1,0.7-0.1v-0.5l-1.3,0l-1.5,0v0.5c0.2,0,0.4,0,0.7,0c0.1,0,0.2,0,0.2,0
			c0,0,0.1,0,0.1,0.1c0,0,0,0.1,0,0.2c0,0,0,0.1,0,0.1c0,0.2-0.2,0.5-0.3,1c-0.3,0.7-0.4,1-0.4,1.1l-1.3,3.3l-1.5-3.7
			c0,0,0-0.1,0-0.1c0,0-0.1-0.2-0.2-0.6c-0.3-0.6-0.4-1-0.4-1.1c0-0.1,0-0.1,0.1-0.1c0,0,0.1-0.1,0.2-0.1c0.2,0,0.4-0.1,0.7-0.1
			v-0.5l-2.2,0c-0.2,0-0.8,0-1.8,0v0.5c0.4,0,0.6,0,0.8,0.1c0.1,0,0.2,0.2,0.4,0.5c0.2,0.3,0.6,1.2,1.2,2.8l0.9,2
			c0.3,0.7,0.6,1.5,1,2.4H396.7z M387,288.2c-0.7,0-1.2,0-1.7,0v0.5c0.4,0,0.7,0,0.8,0.1c0.1,0,0.1,0,0.1,0.1c0,0,0,0.1,0.1,0.1
			c0,0.1,0.1,0.4,0.1,0.9c0,0.2,0,0.7,0,1.5v2.5c0,0.4,0,0.8-0.1,1.3c0,0.3,0,0.5,0,0.6c0,0,0,0.1-0.1,0.1c0,0-0.1,0.1-0.2,0.1
			c-0.1,0-0.3,0-0.7,0v0.5c0.5,0,1.1,0,1.7,0c0.7,0,1.4,0,2.1,0V296c-0.4,0-0.6,0-0.7,0c-0.1,0-0.1,0-0.2-0.1c0,0-0.1-0.1-0.1-0.1
			c0-0.1-0.1-0.4-0.1-0.8l0-1.1v-2.4c0-0.1,0-0.6,0-1.6c0-0.3,0-0.5,0-0.6c0-0.2,0-0.3,0.1-0.4c0,0,0-0.1,0.1-0.1c0,0,0.1,0,0.2-0.1
			c0.1,0,0.3,0,0.7,0v-0.5C388.4,288.2,387.7,288.2,387,288.2 M373.1,296.5c0.7,0,1.2,0,1.6,0c0.1,0,0.5,0,1.3,0V296
			c-0.1,0-0.1,0-0.1,0c-0.1,0-0.3,0-0.6,0c-0.1,0-0.2,0-0.2-0.1c0,0-0.1-0.1-0.1-0.1c0-0.1-0.1-0.4-0.1-0.8c0-0.7,0-1.3,0-1.9v-3
			c2.4,2.9,4.2,5,5.5,6.4c0.4,0,0.7,0.1,1,0.2l0.1-0.1c-0.1-0.6-0.1-2.2-0.1-4.8c0-0.3,0-0.9,0-1.6c0-0.7,0.1-1.2,0.1-1.4
			c0,0,0-0.1,0.1-0.1c0.1-0.1,0.4-0.1,0.9-0.1v-0.5c-0.6,0-1.1,0-1.5,0c-0.4,0-0.9,0-1.4,0v0.5c0.5,0,0.9,0,0.9,0.1
			c0.1,0,0.1,0.1,0.1,0.3c0,0.4,0.1,1.6,0.1,3.8v1.4c-0.6-0.6-1.3-1.3-2.1-2.4c-1.2-1.4-2.2-2.6-3-3.7l-0.6,0l-0.9,0
			c-0.2,0-0.6,0-1.1,0v0.5c0.4,0,0.7,0.1,0.8,0.1c0.1,0,0.2,0.1,0.2,0.1c0,0,0.1,0.1,0.1,0.2c0,0.1,0,0.3,0,0.6l0,1.7v1.9
			c0,0.5,0,1,0,1.3c0,0.6-0.1,0.9-0.1,1.1c0,0.1,0,0.2-0.1,0.2c0,0-0.1,0.1-0.1,0.1c-0.1,0-0.3,0-0.8,0.1V296.5z M362.3,288.8
			c0.1,0.1,0.1,0.1,0.2,0.2c0,0.1,0.1,0.2,0.1,0.4c0,0.4,0,0.9,0,1.5v1.5l0,1.1c0,0.6,0,1,0,1.2c0,0.2,0.1,0.5,0.2,0.7
			c0.1,0.2,0.3,0.5,0.6,0.7c0.2,0.2,0.6,0.4,0.9,0.5c0.5,0.2,1.1,0.2,1.7,0.2c0.5,0,1-0.1,1.4-0.2c0.4-0.1,0.7-0.3,1-0.5
			c0.3-0.2,0.5-0.5,0.7-0.7c0.2-0.3,0.3-0.6,0.3-1c0.1-0.4,0.1-0.7,0.1-1.1v-1.4c0-0.4,0-1,0-1.7c0-0.7,0.1-1.1,0.1-1.2
			c0-0.1,0.1-0.2,0.1-0.2c0.1-0.1,0.3-0.1,0.7-0.1v-0.5l-1.3,0c-0.1,0-0.1,0-0.2,0c-0.1,0-0.6,0-1.3,0v0.5c0.4,0,0.7,0.1,0.9,0.1
			c0.1,0,0.1,0.1,0.1,0.1c0,0.1,0.1,0.4,0.1,0.9c0,0.2,0,0.9,0,1.9v1.2c0,0.8-0.1,1.4-0.2,1.7c-0.1,0.3-0.4,0.5-0.7,0.7
			c-0.3,0.2-0.8,0.3-1.3,0.3c-0.5,0-0.9-0.1-1.2-0.2c-0.3-0.1-0.6-0.3-0.7-0.6c-0.2-0.2-0.2-0.5-0.3-0.9c0-0.2,0-0.6,0-1.3l0-0.7
			v-1.4c0-0.8,0-1.4,0.1-1.6c0-0.1,0.1-0.2,0.1-0.2c0.1-0.1,0.4-0.1,0.8-0.1v-0.5l-0.2,0l-0.8,0l-0.8,0l-2,0v0.5L362.3,288.8z"/>
	</g>
</g>
</svg>
